<svg height="507pt" viewBox="0 -30 507.91186 507" width="507pt" xmlns="http://www.w3.org/2000/svg"><path d="m493.53125 1.691406-64.914062 36.847656-146.652344 83.109376c-30.265625-55.683594-59.703125-103.226563-72.59375-111.820313-30.355469-20.386719-74.242188 8.871094-74.242188 8.871094h-132.9375c-1.15625.058593-2.089844.96875-2.1835935 2.125-.09375 1.15625.6835935 2.203125 1.8203125 2.445312 69.117187 13.257813 99.199219 27.335938 117.394531 44.25l.089844.09375c6.789062 6.480469 12.777344 13.753907 17.828125 21.667969.457031.730469.914063 1.371094 1.371094 2.101562 15.359375 23.222657 13.625 55.773438 14.902343 82.46875 2.5625 49.554688 24.59375 99.476563 67.75 125.804688 31.75 18.296875 64.742188 34.335938 98.742188 48 .914062.367188 1.921875.824219 2.835938 1.191406 4.78125 2.054688 8.546874 5.929688 10.46875 10.765625 1.921874 4.835938 1.835937 10.238281-.230469 15.015625l-20.480469 46.355469c-2.65625 6.019531-2.105469 12.972656 1.46875 18.5s9.6875 8.882813 16.269531 8.929687h31.542969c5.203125.023438 10.195312-2.0625 13.832031-5.785156s5.609375-8.761718 5.460938-13.964844c-.464844-37.796874-3.734375-75.507812-9.785157-112.824218-6.40625-22.675782-14.820312-44.734375-25.140624-65.917969v-.09375c19.332031-9.652344 37.574218-21.363281 54.398437-34.925781 3.65625-2.925782 7.222656-5.941406 10.695313-9.234375 5.871093-5.152344 11.371093-10.710938 16.457031-16.636719 2.5625-2.925781 5.121093-5.945312 7.5-8.960938 9.640625-12.011718 18.238281-24.828124 25.691406-38.308593 2.195313-3.75 4.203125-7.589844 6.214844-11.429688 1.464843-2.835937 2.925781-5.761719 4.296875-8.59375 16.394531-34.976562 28.578125-71.773437 36.296875-109.625.789062-3.707031-.667969-7.535156-3.722657-9.78125-3.054687-2.2460935-7.140624-2.496093-10.445312-.640625zm-241.601562 251.976563c-1.363282-.75-2.742188-1.582031-4.050782-2.414063 1.34375.824219 2.6875 1.65625 4.050782 2.414063zm-54.628907-62.445313c3.882813 7.402344 8.15625 14.59375 12.800781 21.542969-4.652343-6.945313-8.921874-14.136719-12.800781-21.542969zm20.753907 32.429688c1.746093 2.222656 3.503906 4.390625 5.292968 6.402344-1.789062-1.984376-3.546875-4.1875-5.292968-6.402344zm-7.394532-10.054688c1.972656 2.90625 3.964844 5.703125 5.988282 8.347656-2.023438-2.671874-4.015626-5.46875-5.988282-8.375zm14.855469 18.824219c1.546875 1.683594 3.109375 3.347656 4.679687 4.890625-1.570312-1.574219-3.132812-3.234375-4.679687-4.917969zm18.960937 16.675781c-1.371093-.914062-2.742187-1.964844-4.074218-3 1.351562.996094 2.703125 2.023438 4.074218 3zm-7.238281-5.484375c-1.445312-1.199219-2.863281-2.496093-4.28125-3.796875 1.417969 1.300782 2.835938 2.597656 4.296875 3.796875zm49.992188 20.113281c.914062.046876 1.828125.136719 2.742187.15625-.933594.027344-1.835937-.066406-2.742187-.109374zm-31.425781-8.117187c1.097656.527344 2.203124 1.078125 3.320312 1.5625-1.117188-.441406-2.222656-.988281-3.320312-1.519531zm7.535156 3.214844c1.070312.402343 2.140625.816406 3.226562 1.164062-1.085937-.304687-2.15625-.714843-3.226562-1.117187zm7.753906 2.433593c1.023438.265626 2.046875.558594 3.082031.785157-1.035156-.144531-2.058593-.472657-3.089843-.738281zm7.972656 1.636719c.96875.144531 1.929688.328125 2.90625.4375-.976562-.0625-1.9375-.246093-2.90625-.390625zm16.546875.867188c.84375 0 1.664063 0 2.507813-.070313-.84375.097656-1.664063.089844-2.507813.117188zm8.816407-.765625c.675781-.082032 1.34375-.128906 2.027343-.230469-.683593.148437-1.351562.191406-2.027343.273437zm0 0" fill="#35495e"/><path d="m319.90625 347.65625c-34-13.664062-66.992188-29.703125-98.742188-48-43.15625-26.328125-65.1875-76.25-67.75-125.804688-1.277343-26.695312.457032-59.246093-14.902343-82.46875-.457031-.730468-.914063-1.371093-1.371094-2.101562-5.050781-7.914062-11.039063-15.1875-17.828125-21.667969 4.753906 1.917969 9.875 4.113281 15.269531 6.671875 39.414063 18.558594 76.71875 41.300782 111.269531 67.839844l-40.871093 23.132812c-9.085938 5.210938-12.46875 16.648438-7.679688 25.964844 31.816407 60.527344 71.039063 80.824219 117.667969 69.945313l.914062 4.386719s23.957032 41.875 4.023438 82.101562zm0 0" fill="#955ba5"/><path d="m281.964844 121.648438-36.113282 20.476562c-34.550781-26.539062-71.855468-49.28125-111.269531-67.839844-3.539062-18.195312-4.09375-36.847656-1.648437-55.222656l.09375-.363281h2.101562s43.886719-29.257813 74.242188-8.871094c12.890625 8.59375 42.328125 56.136719 72.59375 111.820313zm0 0" fill="#71c285"/><path d="m428.617188 38.539062c-91.429688 78.808594-165.304688 198.949219-175.453126 215.863282-20.664062-10.972656-39.222656-31.636719-55.863281-63.179688-4.789062-9.316406-1.40625-20.753906 7.679688-25.964844l40.871093-23.132812 36.113282-20.476562zm0 0" fill="#bdc3c7"/><path d="m507.699219 12.113281c-7.71875 37.851563-19.902344 74.648438-36.296875 109.625-1.371094 2.832031-2.832032 5.757813-4.296875 8.59375-2.011719 3.839844-4.019531 7.679688-6.214844 11.429688-7.453125 13.480469-16.050781 26.296875-25.691406 38.308593-2.378907 3.015626-4.9375 6.035157-7.5 8.960938-5.085938 5.925781-10.585938 11.484375-16.457031 16.636719-3.472657 3.292969-7.039063 6.308593-10.695313 9.234375-16.824219 13.5625-35.066406 25.273437-54.398437 34.925781v.09375c-9.953126 4.875-20.40625 8.644531-31.179688 11.246094-20.722656 5.554687-42.773438 3.140625-61.804688-6.765625 10.148438-16.914063 84.023438-137.054688 175.453126-215.863282l64.914062-36.847656c3.304688-1.855468 7.390625-1.6054685 10.445312.640625 3.054688 2.246094 4.511719 6.074219 3.722657 9.78125zm0 0" fill="#e6e7e8"/><path d="m187.882812 46.125c0 5.050781-4.09375 9.144531-9.140624 9.144531-5.050782 0-9.144532-4.09375-9.144532-9.144531 0-5.046875 4.09375-9.140625 9.144532-9.140625 5.046874 0 9.140624 4.09375 9.140624 9.140625zm0 0"/><path d="m471.402344 121.738281c-1.371094 2.832031-2.832032 5.757813-4.296875 8.59375-2.011719 3.839844-4.019531 7.679688-6.214844 11.429688-13.992187 1.628906-28.066406 2.421875-42.148437 2.375-6.949219 0-13.988282-.179688-21.03125-.546875-5.046876-.253906-8.9375-4.550782-8.683594-9.601563.253906-5.046875 4.550781-8.9375 9.597656-8.683593 24.320312 1.417968 48.71875.222656 72.777344-3.566407zm0 0" fill="#bdc3c7"/><path d="m435.199219 180.070312c-2.378907 3.015626-4.9375 6.035157-7.5 8.960938-5.085938 5.925781-10.585938 11.484375-16.457031 16.636719-14.296876 3.570312-28.964844 5.472656-43.699219 5.671875-12.769531.359375-25.460938-2.042969-37.214844-7.042969-4.59375-2.121094-6.597656-7.5625-4.476563-12.160156 2.117188-4.59375 7.5625-6.597657 12.15625-4.480469 19.933594 9.234375 53.121094 6.675781 96-7.3125.367188-.089844.734376-.183594 1.191407-.273438zm0 0" fill="#bdc3c7"/><path d="m134.582031 74.285156c-5.394531-2.558594-10.515625-4.753906-15.269531-6.671875l-.089844-.09375c-18.195312-16.914062-48.277344-30.992187-117.394531-44.25-1.136719-.242187-1.9140625-1.289062-1.8203125-2.445312.0937495-1.15625 1.0273435-2.066407 2.1835935-2.125h130.835938l-.09375.363281c-2.445313 18.375-1.890625 37.027344 1.648437 55.222656zm0 0" fill="#e64c3c"/></svg>